{"accessors":[{"bufferView":2,"componentType":5126,"count":6889,"max":[1546.398193359375,444.67279052734375,810.5634155273438],"min":[-1546.398193359375,-550.278076171875,-2076.18798828125],"type":"VEC3"},{"bufferView":2,"byteOffset":82668,"componentType":5126,"count":6889,"max":[1,1,1],"min":[-1,-1,-1],"type":"VEC3"},{"bufferView":1,"componentType":5126,"count":6889,"max":[1.983122706413269,0.9893887639045715],"min":[-0.00031071901321411133,0.004580887034535408],"type":"VEC2"},{"bufferView":0,"componentType":5125,"count":24582,"type":"SCALAR"},{"bufferView":2,"byteOffset":165336,"componentType":5126,"count":212,"max":[241.01368713378906,279.2005310058594,7.780181884765625],"min":[-241.01368713378906,-279.2005310058594,-7.780181884765625],"type":"VEC3"},{"bufferView":2,"byteOffset":167880,"componentType":5126,"count":212,"max":[0.9143292903900146,0.902798056602478,0.9998514652252197],"min":[-0.914333701133728,-0.9027982950210571,-0.9995407462120056],"type":"VEC3"},{"bufferView":1,"byteOffset":55112,"componentType":5126,"count":212,"max":[1.6208175420761108,0.2551882565021515],"min":[0.44493696093559265,0.1804811954498291],"type":"VEC2"},{"bufferView":0,"byteOffset":98328,"componentType":5125,"count":768,"type":"SCALAR"},{"bufferView":3,"componentType":5126,"count":253,"max":[8.333333015441895],"min":[0.0041708261705935],"type":"SCALAR"},{"bufferView":4,"componentType":5126,"count":253,"max":[0,45.3174934387207,0],"min":[0,-13.490426063537598,0],"type":"VEC3"},{"bufferView":3,"byteOffset":1012,"componentType":5126,"count":253,"max":[8.333333015441895],"min":[0.0041708261705935],"type":"SCALAR"},{"bufferView":5,"componentType":5126,"count":253,"max":[0,0,0.042659640312194824,1],"min":[0,0,-0.04282965138554573,0.9990823864936829],"type":"VEC4"},{"bufferView":3,"byteOffset":2024,"componentType":5126,"count":253,"max":[8.333333015441895],"min":[0.0041708261705935],"type":"SCALAR"},{"bufferView":4,"byteOffset":3036,"componentType":5126,"count":253,"max":[5.1491241455078125,59.53215408325195,728.026123046875],"min":[5.1491241455078125,0.7242345809936523,728.026123046875],"type":"VEC3"},{"bufferView":3,"byteOffset":3036,"componentType":5126,"count":253,"max":[8.333333015441895],"min":[0.0041708261705935],"type":"SCALAR"},{"bufferView":5,"byteOffset":4048,"componentType":5126,"count":253,"max":[0,0,1,1],"min":[0,0,-0.8589233160018921,-0.4932772219181061],"type":"VEC4"}],"animations":[{"channels":[{"sampler":0,"target":{"node":4,"path":"translation"}},{"sampler":1,"target":{"node":4,"path":"rotation"}},{"sampler":2,"target":{"node":6,"path":"translation"}},{"sampler":3,"target":{"node":6,"path":"rotation"}}],"name":"Take 001","samplers":[{"input":8,"interpolation":"LINEAR","output":9},{"input":10,"interpolation":"LINEAR","output":11},{"input":12,"interpolation":"LINEAR","output":13},{"input":14,"interpolation":"LINEAR","output":15}]}],"asset":{"extras":{"author":"jorandp (https://sketchfab.com/jorandp)","license":"CC-BY-4.0 (http://creativecommons.org/licenses/by/4.0/)","source":"https://sketchfab.com/3d-models/the-flying-circus-stylised-albatros-dva-oaw-3d77c6324a32470d9bf03f15b38e6488","title":"The flying circus: Stylised Albatros D.Va (OAW)"},"generator":"Sketchfab-12.74.0","version":"2.0"},"bufferViews":[{"buffer":0,"byteLength":101400,"name":"floatBufferViews","target":34963},{"buffer":0,"byteLength":56808,"byteOffset":101400,"byteStride":8,"name":"floatBufferViews","target":34962},{"buffer":0,"byteLength":170424,"byteOffset":158208,"byteStride":12,"name":"floatBufferViews","target":34962},{"buffer":0,"byteLength":4048,"byteOffset":328632,"name":"floatBufferViews"},{"buffer":0,"byteLength":6072,"byteOffset":332680,"byteStride":12,"name":"floatBufferViews"},{"buffer":0,"byteLength":8096,"byteOffset":338752,"byteStride":16,"name":"floatBufferViews"}],"buffers":[{"byteLength":346848,"uri":"data:application/octet-stream;base64,"}],"images":[{"uri":"data:application/octet-stream;base64,"}],"materials":[{"doubleSided":true,"name":"M_Plane","pbrMetallicRoughness":{"baseColorTexture":{"index":0},"metallicFactor":0,"roughnessFactor":0.6}}],"meshes":[{"name":"_Plane_01_geo_M_Plane_0","primitives":[{"attributes":{"NORMAL":1,"POSITION":0,"TEXCOORD_0":2},"indices":3,"material":0,"mode":4}]},{"name":"Propellor_01_geo_M_Plane_0","primitives":[{"attributes":{"NORMAL":5,"POSITION":4,"TEXCOORD_0":6},"indices":7,"material":0,"mode":4}]}],"nodes":[{"children":[1],"matrix":[1,0,0,0,0,2.220446049250313e-16,-1,0,0,1,2.220446049250313e-16,0,0,0,0,1],"name":"Sketchfab_model"},{"children":[2],"matrix":[0.009999999776482582,0,0,0,0,0,0.009999999776482582,0,0,-0.009999999776482582,0,0,0,0,0,1],"name":"9fd60b7e97b24c52aada24da8bba67af.fbx"},{"children":[3],"name":"Object_2"},{"children":[4,6],"name":"RootNode"},{"children":[5],"name":"_Plane_01_geo","rotation":[0,0,0.010229969397187233,0.9999476671218872],"translation":[0,-5.29178524017334,0]},{"mesh":0,"name":"_Plane_01_geo_M_Plane_0"},{"children":[7],"name":"Propellor_01_geo","rotation":[0,0,0.9929008483886719,-0.11894483119249344],"translation":[5.1491241455078125,8.92287540435791,728.026123046875]},{"mesh":1,"name":"Propellor_01_geo_M_Plane_0"}],"samplers":[{"magFilter":9729,"minFilter":9987,"wrapS":10497,"wrapT":10497}],"scene":0,"scenes":[{"name":"Sketchfab_Scene","nodes":[0]}],"textures":[{"sampler":0,"source":0}]}